<?xml version="1.0" standalone="no"?>
<!DOCTYPE svg PUBLIC "-//W3C//DTD SVG 20010904//EN"
 "http://www.w3.org/TR/2001/REC-SVG-20010904/DTD/svg10.dtd">
<svg version="1.0" xmlns="http://www.w3.org/2000/svg"
 width="1297.000000pt" height="816.000000pt" viewBox="0 0 1297.000000 816.000000"
 preserveAspectRatio="xMidYMid meet">

<g transform="translate(0.000000,816.000000) scale(0.100000,-0.100000)"
fill="#001f5b" stroke="none">
<path d="M6633 6650 c-62 -5 -134 -13 -160 -19 -27 -6 -77 -18 -113 -27 -36
-8 -81 -19 -100 -23 -90 -21 -259 -97 -419 -188 -65 -37 -232 -174 -303 -249
-60 -62 -60 -63 -127 -69 -103 -9 -258 -43 -303 -66 -153 -78 -260 -189 -325
-338 -14 -31 -29 -65 -34 -76 -21 -49 -39 -164 -39 -263 -2 -168 30 -282 123
-444 86 -151 354 -346 443 -324 43 11 81 52 82 91 1 20 4 40 7 45 9 14 -21 65
-49 87 -14 10 -48 32 -77 48 -88 50 -173 137 -212 218 -82 169 -88 378 -15
525 79 160 228 241 444 242 93 1 123 16 246 132 133 125 225 198 318 253 244
143 489 205 809 205 200 0 315 -19 506 -82 165 -54 321 -147 449 -268 66 -63
183 -207 241 -299 45 -72 202 -227 289 -286 45 -29 111 -68 148 -85 38 -18 70
-36 73 -41 3 -4 10 -47 15 -93 6 -47 16 -98 22 -113 29 -67 102 -150 179 -204
23 -16 23 -16 4 -45 -20 -32 -109 -124 -119 -124 -3 0 -25 -15 -49 -33 -120
-92 -332 -182 -583 -247 -87 -23 -167 -46 -177 -52 -10 -5 -46 -19 -80 -30
-78 -26 -210 -86 -219 -101 -4 -7 -8 -8 -8 -4 0 10 -77 -48 -134 -101 -69 -64
-176 -205 -176 -232 0 -6 -4 -10 -8 -10 -5 0 -17 -26 -27 -57 -11 -32 -22 -62
-26 -68 -3 -5 -12 -35 -19 -65 -6 -30 -16 -71 -21 -90 -21 -83 -16 -305 10
-448 12 -65 61 -223 86 -277 7 -16 17 -43 21 -60 4 -16 10 -34 14 -40 4 -5 13
-26 20 -45 7 -19 36 -82 62 -140 27 -58 63 -141 80 -185 17 -44 43 -111 58
-150 15 -38 40 -110 55 -160 45 -154 54 -167 115 -185 39 -11 102 11 123 43
22 35 29 92 16 144 -51 211 -82 295 -267 703 -38 85 -77 182 -87 215 -9 33
-21 74 -26 91 -5 17 -16 77 -25 135 -18 119 -13 310 10 396 40 145 140 287
255 360 104 67 199 103 461 177 242 68 336 102 470 172 253 132 420 300 543
549 58 119 61 241 8 350 -49 98 -119 147 -276 191 -122 34 -268 97 -353 153
-100 66 -221 191 -302 313 -29 43 -71 99 -94 125 -23 27 -51 60 -62 74 -38 51
-192 176 -285 234 -153 95 -312 156 -539 210 -66 15 -313 36 -405 33 -27 0
-101 -4 -162 -8z m2215 -1407 c32 -8 45 -38 40 -95 -7 -67 -16 -73 -69 -45
-48 26 -98 101 -99 149 l0 26 53 -15 c28 -8 62 -17 75 -20z"/>
<circle fill="#ff6600" cx="7349" cy="5703" r="200"/>
<circle fill="#ffffff" cx="7449" cy="5780" r="75"/>
<path d="M5340 4332 c-48 -47 -49 -62 -16 -187 13 -49 33 -141 45 -203 22
-124 38 -154 93 -176 79 -33 168 21 168 102 0 84 -45 295 -87 410 -22 60 -63
92 -118 92 -37 0 -50 -6 -85 -38z"/>
<path fill="#ff6600" d="M5457 3335 c-102 -36 -143 -135 -96 -231 39 -82 137 -114 219 -72
134 69 111 267 -35 307 -48 13 -41 13 -88 -4z"/>
<path d="M5225 2620 c-35 -14 -60 -51 -150 -224 -48 -94 -99 -187 -113 -208
-32 -49 -34 -117 -6 -155 27 -35 83 -54 127 -42 47 13 74 46 155 190 94 165
144 276 145 320 3 80 -88 149 -158 119z"/>
</g>
</svg>
